
<?xml version="1.0" encoding="utf-8"?>
<!-- Generator: Adobe Illustrator 15.1.0, SVG Export Plug-In . SVG Version: 6.00 Build 0)  -->
<!DOCTYPE svg PUBLIC "-//W3C//DTD SVG 1.1//EN" "http://www.w3.org/Graphics/SVG/1.1/DTD/svg11.dtd">
<svg version="1.1" id="Symbol" xmlns="http://www.w3.org/2000/svg" xmlns:xlink="http://www.w3.org/1999/xlink" x="0px" y="0px"
	 width="600px" height="600px" viewBox="0 0 600 600" enable-background="new 0 0 600 600" xml:space="preserve">
<g id="layers">
</g>
<rect fill="#634b66" width="600" height="600"/>
<path id="S" fill="#FFFFFF" d="M212.251,389.338c0-3.246,2.027-8.127,6.099-14.637c4.064-6.504,7.724-9.758,10.979-9.758
	c0.319,0,2.928,1.547,7.806,4.635c4.88,3.096,11.872,6.182,20.982,9.271c9.103,3.096,20.082,4.635,32.936,4.635
	c12.846,0,23.421-3.66,31.716-10.979c8.295-7.32,12.441-17.238,12.441-29.764c0-12.518-3.659-22.277-10.979-29.275
	c-7.318-6.992-21.88-13.579-43.67-19.762c-21.796-6.176-37.57-14.065-47.328-23.664c-9.759-9.592-14.638-24.153-14.638-43.671
	c0-19.517,7.479-35.863,22.444-49.037c14.958-13.174,34.476-19.761,58.552-19.761c16.591,0,31.388,2.119,44.402,6.343
	c13.007,4.231,19.517,8.951,19.517,14.15c0,4.232-1.875,9.683-5.61,16.346c-3.744,6.671-7.075,10.003-10.004,10.003
	c-0.328,0-2.438-0.976-6.341-2.928c-11.063-5.856-23.506-8.784-37.328-8.784c-13.83,0-24.565,2.852-32.203,8.54
	c-7.647,5.694-11.467,13.098-11.467,22.2c0,9.111,2.844,16.27,8.539,21.47c5.688,5.207,15.37,9.927,29.033,14.149
	c30.571,9.438,51.309,19.762,62.21,30.985c10.896,11.222,16.348,28.14,16.348,50.745c0,22.613-8.052,41.229-24.154,55.867
	c-16.102,14.639-35.374,21.957-57.819,21.957c-22.445,0-41.803-3.33-58.064-10.002C220.378,401.949,212.251,395.523,212.251,389.338
	z"/>
</svg>
